<svg width="1140" height="1024" xmlns="http://www.w3.org/2000/svg" style="vector-effect: non-scaling-stroke;" stroke="null">

 <g stroke="null">
  <title stroke="null">Layer 1</title>
  <path stroke="#000" id="svg_2" d="m1140.00005,-0.00937l-368.50002,0l0,0c-203.51697,0 -368.50002,176.91572 -368.50002,395.15234c0,218.23664 164.98305,395.15234 368.50002,395.15234l368.50002,0l0,-790.30468z" fill="#0e0f0f"/>
  <rect stroke="#000" id="svg_4" height="23" width="481.00001" y="136" x="560.99999" opacity="NaN" fill="#1e1d1d"/>
  <rect stroke="#000" id="svg_5" height="23" width="481.00001" y="172" x="560.99999" opacity="NaN" fill="#1e1d1d"/>
  <rect stroke="#000" id="svg_6" height="23" width="481.00001" y="209" x="560.99999" opacity="NaN" fill="#1e1d1d"/>
  <rect stroke="#000" id="svg_7" height="23" width="481.00001" y="248" x="561.99999" opacity="NaN" fill="#1e1d1d"/>
  <rect stroke="#000" id="svg_8" height="23" width="481.00001" y="284" x="561.99999" opacity="NaN" fill="#1e1d1d"/>
  <rect stroke="#000" id="svg_9" height="23" width="481.00001" y="321" x="561.99999" opacity="NaN" fill="#1e1d1d"/>
  <rect stroke="#000" id="svg_10" height="23" width="481.00001" y="359" x="564.99999" opacity="NaN" fill="#1e1d1d"/>
  <rect stroke="#000" id="svg_11" height="23" width="481.00001" y="395" x="564.99999" opacity="NaN" fill="#1e1d1d"/>
  <rect stroke="#000" id="svg_12" height="23" width="481.00001" y="432" x="564.99999" opacity="NaN" fill="#1e1d1d"/>
  <rect stroke="#000" id="svg_13" height="23" width="481.00001" y="471" x="565.99999" opacity="NaN" fill="#1e1d1d"/>
  <rect stroke="#000" id="svg_14" height="23" width="481.00001" y="507" x="565.99999" opacity="NaN" fill="#1e1d1d"/>
  <rect stroke="#000" id="svg_15" height="23" width="481.00001" y="544" x="565.99999" opacity="NaN" fill="#1e1d1d"/>
  <rect stroke="#000" id="svg_16" height="23" width="481.00001" y="579" x="566.99999" opacity="NaN" fill="#1e1d1d"/>
  <rect stroke="#000" id="svg_17" height="23" width="481.00001" y="615" x="566.99999" opacity="NaN" fill="#1e1d1d"/>
  <rect stroke="#000" id="svg_18" height="23" width="481.00001" y="652" x="566.99999" opacity="NaN" fill="#1e1d1d"/>
  <rect stroke="#000" id="svg_19" height="23" width="391.00003" y="28" x="650.99997" opacity="NaN" fill="#1e1d1d"/>
  <rect stroke="#000" id="svg_20" height="23" width="457.00001" y="63" x="584.99999" opacity="NaN" fill="#1e1d1d"/>
  <rect stroke="#000" id="svg_21" height="23" width="481.00001" y="99" x="560.99999" opacity="NaN" fill="#1e1d1d"/>
  <rect stroke="#000" id="svg_22" height="23" width="481.00001" y="689" x="567.99999" opacity="NaN" fill="#1e1d1d"/>
  <rect stroke="#000" id="svg_23" height="23" width="427.00001" y="725" x="621.99999" opacity="NaN" fill="#1e1d1d"/>
  <rect stroke="#000" id="svg_24" height="23" width="296.00002" y="762" x="752.99998" opacity="NaN" fill="#1e1d1d"/>
  <path stroke="#000" id="svg_29" d="m31.84999,1.36198l11,0l0,712.00001l-11,0l0,-712.00001z" fill="#0e0f0f"/>
  <path id="svg_31" d="m11.935,728.94998l0,0c0,-10.21727 10.52131,-18.50001 23.5,-18.50001l0,0c6.23258,0 12.2099,1.9491 16.61701,5.41853c4.40711,3.46943 6.88299,8.17497 6.88299,13.08148l0,0c0,10.21727 -10.52131,18.50001 -23.5,18.50001l0,0c-12.97869,0 -23.5,-8.28274 -23.5,-18.50001zm11.75,0l0,0c0,5.10863 5.26066,9.25 11.75,9.25c6.48935,0 11.75,-4.14137 11.75,-9.25c0,-5.10863 -5.26066,-9.25 -11.75,-9.25l0,0c-6.48934,0 -11.75,4.14137 -11.75,9.25z" stroke="#000" fill="#0e0f0f"/>
 </g>
</svg>